# xmcd CD database file
#
# Track frame offsets:
#	150
#	33075
#	59788
#	95412
#	116508
#	150348
#	184226
#	209396
#	243971
#	273409
#	290626
#	320701
#
# Disc length: 4643 seconds
#
# Revision: 0
# Processed by: cddbd v1.5.2PL0 Copyright (c) Steve Scherf et al.
# Submitted via: CDex 1.70beta2
#
DISCID=ae12210c
DTITLE=Cedar Walton - Plays Billy Strayhorn
DYEAR=1988
DGENRE=Jazz
TTITLE0=Upper Manhattan Medical Group
TTITLE1=Chelsea Bridge
TTITLE2=Take the "A"Train
TTITLE3=Lush Life
TTITLE4=Day Gream
TTITLE5=A Flower is a Lovesome Thing
TTITLE6=Rain Check
TTITLE7=This Guy's in Love with You
TTITLE8=Naima
TTITLE9=Shiny Stockings
TTITLE10=Passion Flower
TTITLE11=Blood Count
EXTD=YEAR: 1988
EXTT0=
EXTT1=
EXTT2=
EXTT3=
EXTT4=
EXTT5=
EXTT6=
EXTT7=
EXTT8=
EXTT9=
EXTT10=
EXTT11=
PLAYORDER=
